<?xml version="1.0" encoding="utf-8"?>
<!-- Generator: Adobe Illustrator 24.0.2, SVG Export Plug-In . SVG Version: 6.00 Build 0)  -->
<svg version="1.1" id="Vrstva_1" xmlns="http://www.w3.org/2000/svg" xmlns:xlink="http://www.w3.org/1999/xlink" x="0px" y="0px"
	 viewBox="0 0 928.2 231.1" style="enable-background:new 0 0 928.2 231.1;" xml:space="preserve">
<style type="text/css">
	.st0{fill:#EB5C3B;}
</style>
<path class="st0" d="M263.4,25.1c-12.6,0-22.9,10.3-22.9,22.9s10.3,22.9,22.9,22.9c12.6,0,22.9-10.3,22.9-22.9S276,25.1,263.4,25.1"
	/>
<path class="st0" d="M79,137.9v51.9c-4.9,8.4-12.8,13.2-21.7,13.2c-16.3,0-22.1-7.8-22.1-29.7v-8.8c0-21.9,6.6-30.1,24.4-30.1
	C68.6,134.5,73.3,135.7,79,137.9 M113.8,187.9V88.7c0-43.6-17.4-63-56.5-63c-34.5,0-54.3,20.6-54.3,56.5v6.9h32.2v-6.9
	c0-19.7,6.7-28.5,21.7-28.5c14.8,0,22.1,9.8,22.1,30.1v32.8c-9.4-4.6-19.8-6.9-30.8-6.9C17.5,109.6,0,128.6,0,161.9v15.3
	c0,34.7,16.4,53.9,46.2,53.9c17.7,0,30.5-7.3,39.1-22.3c6.3,16.3,17.1,21.9,41,22.3l1.2,0v-30.2l-1.1-0.1
	C118.1,199.7,113.8,197.4,113.8,187.9"/>
<polygon class="st0" points="212.4,29.4 181.7,29.4 181.7,227.2 216.9,227.2 216.9,66.2 "/>
<path class="st0" d="M409.5,196.7c-4.5,2.6-10.3,4-16.6,4c-16.6,0-24.4-9.8-24.4-30.8V59.7h44.3V29.6H374c-3.2,0-5.9-2.4-6.3-5.5
	L364.6,0h-31.3v167.3c0,43.5,17.8,63.8,56.2,63.8c11.3,0,19.5-2,29.2-7l0.9-0.5l-8.8-27.6L409.5,196.7z"/>
<path class="st0" d="M506.3,110.7V89.8c0-25.4,6.5-36.2,21.7-36.2c15.3,0,22.1,11.2,22.1,36.2v20.9H506.3z M528,25.6
	c-38.3,0-56.9,22.9-56.9,69.9v65.6c0,47.7,18.1,69.9,56.9,69.9c37.2,0,56.9-21.9,56.9-63.4V163h-34.5v5.4c0,23.6-7.1,34.7-22.4,34.7
	c-15.2,0-21.7-10.8-21.7-36.2v-28.9h78.6V95.5C584.9,48.5,566.3,25.6,528,25.6"/>
<path class="st0" d="M699.7,25.6c-38.3,0-56.9,22.9-56.9,69.9v65.6c0,47,18.6,69.9,56.9,69.9c37.5,0,55.8-22,55.8-67.2v-10.8h-33.3
	v15.3c0,23.6-7.1,34.7-22.4,34.7c-15.2,0-21.7-10.8-21.7-36.2V89.8c0-25.4,6.5-36.2,21.7-36.2c15.3,0,22.4,11,22.4,34.7v15.3h33.3
	V92.5C755.5,47.5,737.2,25.6,699.7,25.6"/>
<path class="st0" d="M893.4,166.9c0,25-6.8,36.2-22.1,36.2c-15.2,0-21.7-10.8-21.7-36.2V89.8c0-25.4,6.5-36.2,21.7-36.2
	c15.3,0,22.1,11.2,22.1,36.2V166.9z M871.3,25.6c-38.3,0-56.9,22.7-56.9,69.5v66.4c0,47.4,18.1,69.5,56.9,69.5
	c38.8,0,56.9-22.1,56.9-69.5V95.1C928.2,47.7,910.1,25.6,871.3,25.6"/>
</svg>
