<?xml version="1.0" encoding="utf-8"?>
<!-- Generator: Adobe Illustrator 24.0.2, SVG Export Plug-In . SVG Version: 6.00 Build 0)  -->
<svg version="1.1" id="Vrstva_1" xmlns="http://www.w3.org/2000/svg" xmlns:xlink="http://www.w3.org/1999/xlink" x="0px" y="0px"
	 viewBox="0 0 1011.3 476.2" style="enable-background:new 0 0 1011.3 476.2;" xml:space="preserve">
<style type="text/css">
	.st0{fill:#EA5C3B;}
	.st1{fill:#1E1E1C;}
</style>
<g>
	<g>
		<rect y="198.2" class="st0" width="1011.3" height="14.7"/>
	</g>
	<g>
		<rect y="461.5" class="st0" width="669.5" height="14.7"/>
	</g>
	<g>
		<path class="st1" d="M11,132.3V5h23.2l20.7,74.7h0.8L76.1,5h21.8v127.3h-18V50.7h-0.8l-18.9,62.4H49.4L29.5,50.7h-0.8v81.6H11z"/>
		<path class="st1" d="M156.6,100.1h20.5v1.5c0,19.9-9.1,32.5-29.9,32.5c-22.2,0-29.7-13.2-29.7-35.6V67.2
			c0-22.8,8.9-35.6,29.7-35.6c21,0,29.9,12.8,29.9,35.6v22.2h-39v12.4c0,10.2,1.7,16.3,9.3,16.3c7.1,0,9.3-5.9,9.3-15.9V100.1z
			 M138.1,74.1h18.3V64c0-10.1-1.9-16.3-9.1-16.3c-7.5,0-9.3,6.1-9.3,16.3V74.1z"/>
		<path class="st1" d="M191.9,51.1V33.5h48.7v19.3l-30.9,61.8h29.7v17.6h-48.7v-19.1l30.9-62H191.9z"/>
		<path class="st1" d="M278.4,14.2c0,6.3-4.4,11.3-11.4,11.3s-11.8-5-11.8-11.3s4.8-11.3,11.8-11.3S278.4,7.9,278.4,14.2z
			 M256.8,33.5h18.3l2.3,16.3v82.5h-20.7V33.5z"/>
		<path class="st1" d="M345.1,100.9v2.3c0,9,1.4,14.9,9.1,14.9c6,0,9.5-4.2,9.5-11.3c0-7.3-4.1-12.1-18-19.7s-21-15.7-21-29.5
			c0-12.4,8.5-26,29.2-26c19.1,0,29,11.1,29,30.4V64h-20.1v-3.6c0-7.5-1.4-12.6-8.9-12.6c-6.8,0-8.9,4.2-8.9,9.4
			c0,8.2,5.8,12.4,18.3,18.6c14.9,7.5,20.3,17.6,20.3,29.3c0,13-8.3,29.3-29,29.3c-20.1,0-29.4-10.9-29.4-31.6v-1.7H345.1z"/>
		<path class="st1" d="M445.1,130.2c-5.2,2.9-9.3,4-16,4c-21,0-29.4-11.5-29.4-32.2V14.4H418l2.3,15.5v3.6h21.2v16.1h-21.2v53.6
			c0,6.1,1.5,13.4,10.8,13.4c3.3,0,6.2-0.8,9.1-2.1L445.1,130.2z"/>
		<path class="st1" d="M453.6,64.1v-3.1c0-16.8,7.7-29.5,28-29.5c21.1,0,29.7,10.2,29.7,31.8v47.3c0,4.4,2.1,5.9,6.8,5.9v17.6
			c-14.7,0-20.1-2.9-23.9-12.1c-3.7,7.5-9.7,12.1-19.1,12.1c-14.1,0-23.4-8.8-23.4-27.4v-7.5c0-14.6,7.1-26,23.6-26
			c6.2,0,11,1.5,15.4,3.6V60.5c0-7.5-1.9-12.8-9.1-12.8c-6.4,0-9.3,4-9.3,13.2v3.3H453.6z M490.7,88.5c-2.5-1-4.4-1.3-7.7-1.3
			c-7.9,0-10.6,4-10.6,13v5.4c0,9,2.1,12.6,9.7,12.6c3.7,0,6.6-1.5,8.7-4.8V88.5z"/>
		<path class="st1" d="M568.9,132.3h-22.4L525,33.5h20.7l11.6,77.2h0.8l11.6-77.2h20.7L568.9,132.3z"/>
		<path class="st1" d="M602.6,64.1v-3.1c0-16.8,7.7-29.5,28-29.5c21.1,0,29.7,10.2,29.7,31.8v47.3c0,4.4,2.1,5.9,6.8,5.9v17.6
			c-14.7,0-20.1-2.9-23.9-12.1c-3.7,7.5-9.7,12.1-19.1,12.1c-14.1,0-23.4-8.8-23.4-27.4v-7.5c0-14.6,7.1-26,23.6-26
			c6.2,0,11,1.5,15.4,3.6V60.5c0-7.5-1.9-12.8-9.1-12.8c-6.4,0-9.3,4-9.3,13.2v3.3H602.6z M639.7,88.5c-2.5-1-4.4-1.3-7.7-1.3
			c-7.9,0-10.6,4-10.6,13v5.4c0,9,2.1,12.6,9.7,12.6c3.7,0,6.6-1.5,8.7-4.8V88.5z"/>
		<path class="st1" d="M695.1,26.6L680.5,0h15.4l7.3,14.4L710.8,0h15.4l-14.7,26.6H695.1z M683,33.5h13.5l1.7,8.2
			c4.6-6.1,11.6-10.2,20.1-10.2c4.8,0,7.7,0.8,10.6,2.3l-5.2,17.4c-1.9-1-4.2-1.5-7.1-1.5c-5.6,0-10,2.3-12.9,5.9v76.6H683V33.5z"/>
		<path class="st1" d="M763.7,14.2c0,6.3-4.4,11.3-11.4,11.3c-7,0-11.8-5-11.8-11.3s4.8-11.3,11.8-11.3
			C759.3,2.9,763.7,7.9,763.7,14.2z M742.1,33.5h18.3l2.3,16.3v82.5h-20.7V33.5z"/>
		<path class="st1" d="M799,41.7c3.7-5.2,10.6-10.2,21.4-10.2c15.4,0,23.2,10.2,23.2,30.6v70.1h-18.9l-1.9-16.3V60.7
			c0-7.7-1.5-13-8.5-13c-4.8,0-8.1,2.1-9.7,4.2v80.4H784V33.5h13.5L799,41.7z"/>
		<path class="st1" d="M922,99c0,22.8-8.9,35.2-29.9,35.2c-20.9,0-29.7-12.4-29.7-35.2V66.8c0-22.8,8.9-35.2,29.7-35.2
			c21,0,29.9,12.4,29.9,35.2V99z M901.4,64c0-10.1-1.9-16.3-9.1-16.3c-7.5,0-9.3,6.1-9.3,16.3v37.9c0,10.2,1.7,16.3,9.3,16.3
			c7.1,0,9.1-6.1,9.1-16.3V64z"/>
		<path class="st1" d="M940.8,33.5h20.7v71.2c0,8.2,1.9,13.4,9.1,13.4c4.1,0,7.5-1.9,9.3-4.8V33.5h20.7v76.6c0,3.6,1.4,6.5,6.8,6.5
			v17.6c-14.7,0-20.1-2.9-23.9-12.1c-3.7,7.5-10.4,12.1-21,12.1c-14.5,0-21.4-8.2-21.4-28.7V33.5z"/>
	</g>
	<g>
		<path class="st1" d="M9.5,327.4v-3.1c0-16.8,7.7-29.5,28-29.5c21.1,0,29.7,10.2,29.7,31.8v47.3c0,4.4,2.1,5.9,6.8,5.9v17.6
			c-14.7,0-20.1-2.9-23.9-12.1c-3.7,7.5-9.7,12.1-19.1,12.1c-14.1,0-23.4-8.8-23.4-27.4v-7.5c0-14.6,7.1-26,23.6-26
			c6.2,0,11,1.5,15.4,3.6v-16.5c0-7.5-1.9-12.8-9.1-12.8c-6.4,0-9.3,4-9.3,13.2v3.3H9.5z M46.5,351.7c-2.5-1-4.4-1.3-7.7-1.3
			c-7.9,0-10.6,4-10.6,13v5.4c0,9,2.1,12.6,9.7,12.6c3.7,0,6.6-1.5,8.7-4.8V351.7z"/>
		<path class="st1" d="M119.5,296.8h20.7V368c0,8.2,1.9,13.4,9.1,13.4c4.1,0,7.5-1.9,9.3-4.8v-79.8h20.7v76.6c0,3.6,1.4,6.5,6.8,6.5
			v17.6c-14.7,0-20.1-2.9-23.9-12.1c-3.7,7.5-10.4,12.1-21,12.1c-14.5,0-21.4-8.2-21.4-28.7V296.8z"/>
		<path class="st1" d="M260.9,395.6h-20.7v-71.8c0-7.8-1.4-12.8-8.5-12.8c-4.8,0-7.9,2.1-9.5,4.2v80.4h-20.7v-98.8h13.5l1.5,8.2
			c3.9-5.9,11-10.2,19.7-10.2c9.9,0,15.4,4.2,19.1,11.7c3.3-6.3,10.6-11.7,21.2-11.7c15.3,0,23,10.2,23,30.6v70.1h-19.1l-1.7-16.3
			V324c0-7.5-1.5-13-8.5-13c-5.2,0-7.9,1.9-9.5,4V395.6z"/>
		<path class="st1" d="M357.6,363.4h20.5v1.5c0,19.9-9.1,32.5-29.9,32.5c-22.2,0-29.7-13.2-29.7-35.6v-31.4
			c0-22.8,8.9-35.6,29.7-35.6c21,0,29.9,12.8,29.9,35.6v22.2h-39v12.4c0,10.2,1.7,16.3,9.3,16.3c7.1,0,9.3-5.9,9.3-15.9V363.4z
			 M339.8,289.9l-14.7-26.6h15.4l7.3,14.4l7.5-14.4h15.4l-14.7,26.6H339.8z M339.1,337.4h18.3v-10.1c0-10.1-1.9-16.3-9.1-16.3
			c-7.5,0-9.3,6.1-9.3,16.3V337.4z"/>
		<path class="st1" d="M412.6,305c3.7-5.2,10.6-10.2,21.4-10.2c15.4,0,23.2,10.2,23.2,30.6v70.1h-18.9l-1.9-16.3V324
			c0-7.7-1.5-13-8.5-13c-4.8,0-8.1,2.1-9.7,4.2v80.4h-20.7v-98.8h13.5L412.6,305z"/>
		<path class="st1" d="M508,263.3l-13.9,26.6h-17l9.9-26.6H508z M478.3,296.8h18.9l2.1,16.3v82.5h-21.1V296.8z"/>
		<path class="st1" d="M580.1,395.6h-20.7v-71.8c0-7.8-1.4-12.8-8.5-12.8c-4.8,0-7.9,2.1-9.5,4.2v80.4h-20.7v-98.8h13.5l1.5,8.2
			c3.9-5.9,11-10.2,19.7-10.2c9.9,0,15.4,4.2,19.1,11.7c3.3-6.3,10.6-11.7,21.2-11.7c15.3,0,23,10.2,23,30.6v70.1h-19.1l-1.7-16.3
			V324c0-7.5-1.5-13-8.5-13c-5.2,0-7.9,1.9-9.5,4V395.6z"/>
		<path class="st1" d="M649.2,373.2c7.5,0,12.4,4.8,12.4,11.7s-4.8,11.7-12.4,11.7c-7.5,0-12.2-4.8-12.2-11.7
			S641.7,373.2,649.2,373.2z"/>
	</g>
</g>
</svg>
