<svg xmlns="http://www.w3.org/2000/svg" viewBox="0 0 297.86 76.02"><defs><style>.cls-1{fill:#ffc600;}.cls-2{fill:#101820;}</style></defs><g id="Vrstva_2" data-name="Vrstva 2"><g id="Vrstva_1-2" data-name="Vrstva 1"><path class="cls-1" d="M76.27,52.54l-4.88,4.91A3.34,3.34,0,0,0,70.21,60a3.38,3.38,0,0,0,3.38,3.38,3.44,3.44,0,0,0,2.54-1.18c1.19-1.26,4.92-4.87,4.92-4.87a3.38,3.38,0,0,0-4.78-4.78Z"/><path class="cls-1" d="M84.33,30.35a3.38,3.38,0,0,0-4.78,0L77.2,32.7a3.37,3.37,0,1,0,4.42,5.07l0,0,2.68-2.67A3.38,3.38,0,0,0,84.33,30.35Z"/><path class="cls-1" d="M53.21,39a3.38,3.38,0,1,0,3.38,3.38A3.38,3.38,0,0,0,53.21,39Z"/><path class="cls-1" d="M57.84,34.34a3.38,3.38,0,0,0,3.38,3.38,3,3,0,0,0,2-.64C67.71,33.24,80,20.36,80,20.36a3.38,3.38,0,1,0-4.78-4.78L59,31.82A3.35,3.35,0,0,0,57.84,34.34Z"/><path class="cls-1" d="M49.88,23.21a3.38,3.38,0,0,0,3.38,3.38,3.46,3.46,0,0,0,2.52-1.14c.38-.41,1.56-1.57,1.56-1.57l2.79-2.78h0l3.58-3.59a3.38,3.38,0,1,0-4.78-4.77l-8.07,8.07A3.39,3.39,0,0,0,49.88,23.21Z"/><path class="cls-1" d="M71.25,40a3.75,3.75,0,0,0-2.66,1.32c-7.71,7.83-30.81,30.81-30.81,30.81a3.31,3.31,0,0,1-2.05.95A3.36,3.36,0,0,1,33,67.34L47.62,52.71A3.37,3.37,0,0,0,42.85,48l-4.71,4.69a3.33,3.33,0,0,1-2,1,3.37,3.37,0,0,1-2.73-5.74L47,34.23a3.94,3.94,0,0,0,1.55-2.92,3.38,3.38,0,0,0-3.38-3.38,3.42,3.42,0,0,0-2.3.87L37.66,34a3.43,3.43,0,0,1-2.06,1,3.37,3.37,0,0,1-2.72-5.74L56.34,5.77A3.38,3.38,0,0,0,51.56,1L37.78,14.77a3.37,3.37,0,0,1-2.05,1,3.31,3.31,0,0,1-3.6-2.57,1.17,1.17,0,0,1-.05-.2s0-.08,0-.12A3.38,3.38,0,0,1,33,10l3.26-3.26a3.45,3.45,0,0,0,0-4.84,3.38,3.38,0,0,0-4.78,0L1.14,32.2a3.34,3.34,0,0,0-.95,1.46v0a3.24,3.24,0,0,0-.16.7v0a2.71,2.71,0,0,0,0,.29v27.9H0v7.57A5.83,5.83,0,0,0,5.83,76H61a3.47,3.47,0,0,0,2.48-1.18c1.06-1.13,4.39-4.34,4.39-4.34a3.38,3.38,0,0,0-4.78-4.78l-1.87,1.87h0l-3.66,3.68a3.34,3.34,0,0,1-2.14,1h0a3.37,3.37,0,0,1-.71,0h0a3.6,3.6,0,0,1-.63-.15L54,72a3.82,3.82,0,0,1-.54-.26l-.11-.06a4,4,0,0,1-.57-.45,3.38,3.38,0,0,1,0-4.78S68.11,50.91,73.47,46a3.52,3.52,0,0,0,1.16-2.61A3.39,3.39,0,0,0,71.25,40Z"/><path class="cls-2" d="M119.07,58.36c-5.38,0-9.39-1.59-13.88-5.18a.84.84,0,0,1-.21-1.26l3.59-5.12a.83.83,0,0,1,1.27-.16,17.53,17.53,0,0,0,9.82,3.64c3.43,0,5.85-1.16,5.85-3.48,0-2.69-3.16-3.54-6.8-4.28-5.34-1.11-13.25-3.75-13.25-12.3,0-7.33,6.28-10.92,14.3-10.92a21.54,21.54,0,0,1,12.77,4.06.79.79,0,0,1,.27,1.27l-3.38,5.07a.89.89,0,0,1-1.32.26,16.47,16.47,0,0,0-8.76-2.64c-3.75,0-5.23,1.27-5.23,3.17,0,2.32,2.22,2.95,6.71,4,7.33,1.79,13.4,4.22,13.4,12C134.22,53.92,128.31,58.36,119.07,58.36Z"/><path class="cls-2" d="M150.27,51.18c.48,0,1.11,0,1.69-.11s1,.16,1,.79V57a.94.94,0,0,1-.74,1.05,19.34,19.34,0,0,1-3.32.27c-6.12,0-10.24-3.33-10.24-10.08V24.58a.83.83,0,0,1,1-.9h5.49a.83.83,0,0,1,1,.84l.63,6.34h4.75a.85.85,0,0,1,.95.9v5.06a.85.85,0,0,1-.95.9h-4.69v9.55C146.74,49.86,148,51.18,150.27,51.18Z"/><path class="cls-2" d="M167.85,29.54c7.28,0,11.56,3.8,11.56,11.82V55.82a1,1,0,0,1-.79,1.06,40.16,40.16,0,0,1-10.88,1.53c-7.6,0-12.4-2.85-12.4-9.08,0-5.49,4.33-8.23,11.51-8.23a39.24,39.24,0,0,1,4.48.31v-.52c0-2.8-1-4.33-4.43-4.33A15.34,15.34,0,0,0,160.3,38a.84.84,0,0,1-1.26-.32l-2.17-4.12c-.26-.53-.26-.89.11-1.16A20.67,20.67,0,0,1,167.85,29.54Zm-.11,22.32a18.15,18.15,0,0,0,3.59-.42V46.8a20.37,20.37,0,0,0-3.64-.32c-2.9,0-4.17,1-4.17,2.64C163.52,51,165.21,51.86,167.74,51.86Z"/><path class="cls-2" d="M191.66,57.72a1,1,0,0,1-1-.74l-8.86-25.65c-.27-.63.05-1,.74-1h6.65a.94.94,0,0,1,1,.74l3.22,11.56c.58,1.79,1.32,4.59,1.9,6.91h.16c.58-2.32,1.37-5.12,1.9-6.91L200.63,31a1,1,0,0,1,1.06-.74h6.65c.68,0,.95.42.74,1L200.1,57a1.07,1.07,0,0,1-1,.74Z"/><path class="cls-2" d="M222.59,29.54c7.28,0,11.56,3.8,11.56,11.82V55.82a1,1,0,0,1-.79,1.06,40.16,40.16,0,0,1-10.88,1.53c-7.6,0-12.4-2.85-12.4-9.08,0-5.49,4.33-8.23,11.51-8.23a39.24,39.24,0,0,1,4.48.31v-.52c0-2.8-1-4.33-4.43-4.33A15.34,15.34,0,0,0,215,38a.84.84,0,0,1-1.26-.32l-2.17-4.12c-.26-.53-.26-.89.11-1.16A20.67,20.67,0,0,1,222.59,29.54Zm-.11,22.32a18.15,18.15,0,0,0,3.59-.42V46.8a20.37,20.37,0,0,0-3.64-.32c-2.9,0-4.17,1-4.17,2.64C218.26,51,220,51.86,222.48,51.86Z"/><path class="cls-2" d="M240.54,57.72a.84.84,0,0,1-.95-.95v-24a1.21,1.21,0,0,1,.68-1.11A22.32,22.32,0,0,1,250,29.54a30.92,30.92,0,0,1,5.12.53.9.9,0,0,1,.84,1v4.85a.77.77,0,0,1-1,.85,22.58,22.58,0,0,0-3.28-.21,10.83,10.83,0,0,0-4,.68V56.77c0,.64-.31.95-.89.95Z"/><path class="cls-2" d="M263.71,26.48A4.38,4.38,0,0,1,259.22,22a4.31,4.31,0,0,1,4.49-4.43A4.24,4.24,0,0,1,268.14,22,4.3,4.3,0,0,1,263.71,26.48ZM260.6,57.72a.86.86,0,0,1-1-.95V31.17a.84.84,0,0,1,1-.89h6.23a.8.8,0,0,1,.89.89v25.6c0,.64-.31.95-.89.95Z"/><path class="cls-2" d="M285.35,58.41c-7.76,0-12.56-4.22-12.56-11.19V40.89c0-7.08,4.8-11.35,12.56-11.35s12.51,4.27,12.51,11.35v6.33C297.86,54.19,293.06,58.41,285.35,58.41Zm0-7.13c2.8,0,4.33-1.42,4.33-4.06V40.89c0-2.64-1.53-4.17-4.33-4.17S281,38.25,281,40.89v6.33C281,49.86,282.56,51.28,285.35,51.28Z"/></g></g></svg>